<?xml version="1.0" standalone="no"?>
<!DOCTYPE svg PUBLIC "-//W3C//DTD SVG 20010904//EN"
 "http://www.w3.org/TR/2001/REC-SVG-20010904/DTD/svg10.dtd">
<svg version="1.0" xmlns="http://www.w3.org/2000/svg"
 width="512.000000pt" height="512.000000pt" viewBox="0 0 512.000000 512.000000"
 preserveAspectRatio="xMidYMid meet">
<metadata>
Created by potrace 1.11, written by Peter Selinger 2001-2013
</metadata>
<g transform="translate(0.000000,512.000000) scale(0.100000,-0.100000)"
fill="#000000" stroke="none">
<path d="M1620 4310 l0 -810 -810 0 -810 0 0 -85 0 -85 810 0 810 0 0 -770 0
-770 -810 0 -810 0 0 -85 0 -85 810 0 810 0 0 -810 0 -810 85 0 85 0 0 810 0
810 770 0 770 0 0 -810 0 -810 85 0 85 0 0 810 0 810 810 0 810 0 0 85 0 85
-810 0 -810 0 0 770 0 770 810 0 810 0 0 85 0 85 -810 0 -810 0 0 810 0 810
-85 0 -85 0 0 -810 0 -810 -770 0 -770 0 0 810 0 810 -85 0 -85 0 0 -810z
m1708 -1747 l-3 -768 -767 -3 -768 -2 0 770 0 770 770 0 770 0 -2 -767z"/>
<path d="M2506 3238 c-368 -34 -633 -329 -625 -693 6 -260 146 -480 377 -595
334 -165 746 -27 910 305 133 269 82 576 -132 790 -70 69 -176 135 -267 164
-76 24 -184 36 -263 29z m189 -185 c226 -66 381 -276 374 -506 -9 -280 -233
-497 -514 -497 -275 0 -505 235 -505 515 0 222 162 429 381 489 67 19 198 18
264 -1z"/>
<path d="M4115 4930 c-391 -92 -620 -498 -494 -874 37 -111 87 -192 164 -269
368 -364 970 -215 1133 281 32 98 36 271 10 369 -98 358 -459 577 -813 493z
m285 -169 c174 -49 323 -204 364 -380 17 -74 13 -201 -9 -266 -55 -162 -190
-294 -350 -340 -110 -32 -240 -22 -349 28 -153 70 -256 203 -294 377 -10 49
-4 167 13 222 50 174 196 316 370 361 61 16 194 15 255 -2z"/>
<path d="M256 3160 c-33 -33 -57 -62 -55 -65 2 -2 123 -124 268 -270 l265
-265 -267 -267 c-151 -151 -264 -271 -260 -277 13 -22 98 -106 108 -106 5 0
129 119 275 265 l265 265 268 -269 269 -269 59 61 59 62 -267 267 -268 268
268 268 268 268 -60 61 -60 60 -268 -268 -268 -268 -270 269 -270 269 -59 -59z"/>
<path d="M763 1529 c-181 -24 -347 -122 -457 -273 -153 -209 -177 -470 -63
-703 81 -169 252 -310 435 -359 31 -8 98 -17 147 -19 437 -20 777 373 697 805
-38 207 -178 391 -368 484 -120 59 -261 82 -391 65z m208 -179 c148 -34 281
-144 345 -285 91 -199 50 -418 -106 -574 -249 -247 -659 -175 -815 144 -40 81
-45 103 -50 202 -12 242 168 468 409 516 80 15 142 15 217 -3z"/>
<path d="M3670 1450 l-61 -59 265 -265 c146 -146 266 -269 266 -273 0 -5 -120
-127 -265 -273 l-266 -264 61 -61 60 -60 269 269 268 268 267 -266 c146 -146
268 -266 270 -266 5 0 84 78 104 103 12 13 -21 50 -253 283 l-267 267 268 268
269 269 -61 60 -60 61 -264 -266 c-146 -146 -268 -265 -272 -265 -4 0 -127
119 -273 265 l-265 265 -60 -60z"/>
</g>
</svg>
